<?xml version="1.0" encoding="UTF-8" standalone="no"?>

    
<!-- Created with Inkscape (http://www.inkscape.org/) -->

<svg xmlns:dc="http://purl.org/dc/elements/1.1/" 
    xmlns:cc="http://creativecommons.org/ns#"
    xmlns:rdf="http://www.w3.org/1999/02/22-rdf-syntax-ns#" 
    xmlns:svg="http://www.w3.org/2000/svg"
    xmlns="http://www.w3.org/2000/svg" 
    xmlns:xlink="http://www.w3.org/1999/xlink"
    width="100%" height="100%" viewBox="0 0 782.82 303" 
    >
<g transform="matrix(1,0,0,1,-150.81,-105.636)">
    <g transform="matrix(2.66276,0,0,1,10.5717,2.64293)">
        <g transform="matrix(0.37555,0,0,1.10537,-3.97021,-38.1045)">
            <circle cx="266.625" cy="264.966" r="72.753" style="fill:url(#_Linear1);" />
        </g>
        <g transform="matrix(0.37555,0,0,1,-3.97021,-2.64293)">
            <path
                d="M194.35,393.921C193.283,395.298 191.672,396.147 189.933,396.251C188.194,396.354 186.494,395.702 185.271,394.461C162.257,370.21 139.756,321.524 156.776,274.369C171.067,234.778 219.464,152.441 347.849,105.76C348.771,105.421 349.803,105.797 350.289,106.649C350.776,107.502 350.576,108.582 349.815,109.203C307.245,143.727 321.249,197.544 340.702,212.988C370.536,236.673 391.516,268.447 391.516,309.571C391.516,345.295 375.956,377.413 351.254,399.506C350.005,400.608 348.356,401.144 346.698,400.987C345.039,400.83 343.52,399.995 342.499,398.679C333.228,386.745 310.51,357.453 310.51,357.453L310.494,357.453C306.169,349.732 288.135,343.934 266.572,343.934C245.009,343.934 226.975,349.732 222.65,357.453L222.633,357.453C222.633,357.453 203.09,382.652 194.35,393.921ZM293.217,246.114C279.502,236.062 269.858,205.464 278.092,182.118C278.403,181.293 278.112,180.362 277.387,179.86C276.661,179.359 275.688,179.415 275.025,179.997C223.029,225.688 218.035,265.391 220.547,284.233C223.926,309.582 241.309,330.568 266.882,330.568C292.455,330.568 313.217,309.806 313.217,284.233C313.217,268.439 304.772,254.584 293.217,246.114Z"
                style="fill:url(#_Linear2);" />
        </g>
    </g>
</g>
<defs>
    <linearGradient id="_Linear1" x1="0" y1="0" x2="1" y2="0" gradientUnits="userSpaceOnUse"
        gradientTransform="matrix(21.2889,-219.783,242.941,19.2595,255.836,411.996)">
        <stop offset="0" style="stop-color:rgb(56,111,182);stop-opacity:1" />
        <stop offset="0.13" style="stop-color:rgb(182,61,255);stop-opacity:1" />
        <stop offset="0.32" style="stop-color:rgb(210,33,0);stop-opacity:1" />
        <stop offset="0.52" style="stop-color:rgb(201,66,11);stop-opacity:1" />
        <stop offset="0.8" style="stop-color:rgb(252,159,16);stop-opacity:1" />
        <stop offset="1" style="stop-color:rgb(255,164,16);stop-opacity:1" />
    </linearGradient>

    <linearGradient id="_Linear2" x1="0" y1="0" x2="1" y2="0" gradientUnits="userSpaceOnUse"
        gradientTransform="matrix(-85.3295,220.671,-220.671,-85.3295,349.344,110.993)">
        <stop offset="0" style="stop-color:rgb(0,49,103);stop-opacity:1" />
        <stop offset="1" style="stop-color:rgb(29,113,206);stop-opacity:1" />
    </linearGradient>
</defs>
<g transform="matrix(1,0,0,1,210,30)">
<path fill="rgb(180,180,180)" d="M64.54 62.92L31.91 62.92C27.94 62.92 24.11 61.35 21.26 58.58C18.49 55.73 16.91 51.90 16.91 48L16.91 28.20C16.91 19.95 23.59 13.27 31.76 13.20C44.44 13.20 61.16 13.05 64.54 13.05C64.84 13.05 65.14 12.75 65.14 12.45L65.14 1.58C65.14 0.68 64.46 0 63.56 0L23.51 0C17.66 0 12.11 2.33 7.99 6.38C3.94 10.50 1.61 16.05 1.61 21.90L1.61 52.73C1.61 64.72 11.36 74.55 23.44 74.55C38.96 74.63 58.09 74.70 63.56 74.70C64.01 74.70 64.39 74.55 64.69 74.25C64.99 73.95 65.14 73.58 65.14 73.13L65.14 63.52C65.14 63.38 65.06 63.23 64.99 63.08C64.84 62.92 64.69 62.92 64.54 62.92ZM99.34 45.98L129.56 45.98C129.71 45.98 129.86 45.90 130.01 45.83C130.09 45.67 130.16 45.52 130.16 45.38L130.16 34.42C130.16 34.28 130.09 34.13 130.01 33.98C129.86 33.83 129.71 33.83 129.56 33.83L99.34 33.83C99.19 33.83 99.04 33.75 98.89 33.60C98.81 33.53 98.74 33.30 98.74 33.15C98.74 30.75 98.74 22.20 98.81 18.90C98.81 15.45 101.59 12.68 105.04 12.68L139.54 12.68C139.69 12.68 139.84 12.60 139.99 12.45C140.14 12.30 140.21 12.08 140.21 11.85L140.21 2.03C140.21 1.50 139.99 0.98 139.69 0.60C139.39 0.23 138.94 0 138.49 0L95.81 0C92.44 0 89.29 1.35 86.96 3.68C84.64 6 83.29 9.15 83.29 12.52L83.29 73.20C83.29 74.10 83.96 74.78 84.86 74.78C88.76 74.78 98.89 74.85 98.89 74.85C98.89 74.85 98.74 50.85 98.74 46.65C98.74 46.42 98.81 46.27 98.96 46.20C99.04 46.05 99.19 45.98 99.34 45.98ZM251.35 0L238.98 0C238.30 0 237.70 0.45 237.48 1.13C235.83 7.20 228.10 35.40 225.85 43.50C225.78 43.73 225.55 43.95 225.25 43.95C224.95 43.95 224.73 43.73 224.65 43.50C222.40 35.40 214.60 7.20 212.88 1.13C212.73 0.45 212.13 0 211.38 0L199.45 0C198.78 0 198.18 0.45 197.95 1.13C196.30 7.13 188.73 34.65 186.55 42.67C186.48 42.98 186.25 43.13 185.95 43.13C185.65 43.13 185.43 42.98 185.35 42.67C183.10 34.65 175.53 7.13 173.95 1.13C173.73 0.45 173.13 0 172.38 0L160.08 0C159.63 0 159.18 0.23 158.88 0.60C158.58 0.98 158.50 1.50 158.58 1.95C161.58 12.83 175.98 65.33 178.30 73.72C178.45 74.40 179.05 74.92 179.80 74.92L192.10 74.92C192.85 74.92 193.45 74.40 193.60 73.72C195.25 67.80 202.68 40.58 204.93 32.63C205.00 32.40 205.23 32.17 205.53 32.17C205.75 32.17 206.05 32.40 206.13 32.63C208.30 40.58 215.73 67.80 217.38 73.72C217.53 74.40 218.20 74.92 218.88 74.92L231.63 74.92C232.38 74.92 232.98 74.40 233.13 73.72C235.45 65.33 249.85 12.83 252.85 1.95C252.93 1.50 252.85 0.98 252.55 0.60C252.25 0.23 251.80 0 251.35 0Z"/>
</g>
<g transform="matrix(1,0,0,1,270,150)">
<path fill="rgb(57,111,182)" d="M163.98 0L142.53 0C141.36 0 140.32 0.78 139.93 1.95C137.07 12.48 123.68 61.36 119.78 75.40C119.65 75.79 119.26 76.18 118.74 76.18C118.22 76.18 117.83 75.79 117.70 75.40C113.80 61.36 100.28 12.48 97.29 1.95C97.03 0.78 95.99 0 94.69 0L74.02 0C72.85 0 71.81 0.78 71.42 1.95C68.56 12.35 55.43 60.06 51.66 73.97C51.53 74.49 51.14 74.75 50.62 74.75C50.10 74.75 49.71 74.49 49.58 73.97C45.68 60.06 32.55 12.35 29.82 1.95C29.43 0.78 28.39 0 27.09 0L5.77 0C4.99 0 4.21 0.39 3.69 1.04C3.17 1.69 3.04 2.60 3.17 3.38C8.37 22.23 33.33 113.23 37.36 127.79C37.62 128.96 38.66 129.87 39.96 129.87L61.28 129.87C62.58 129.87 63.62 128.96 63.88 127.79C66.74 117.52 79.61 70.33 83.51 56.55C83.64 56.16 84.03 55.77 84.55 55.77C84.94 55.77 85.46 56.16 85.59 56.55C89.36 70.33 102.23 117.52 105.09 127.79C105.35 128.96 106.52 129.87 107.69 129.87L129.79 129.87C131.09 129.87 132.13 128.96 132.39 127.79C136.42 113.23 161.38 22.23 166.58 3.38C166.71 2.60 166.58 1.69 166.06 1.04C165.54 0.39 164.76 0 163.98 0ZM237.51 102.18L297.96 102.18L297.96 128.96C297.96 129.48 298.48 130 299.13 130L322.40 130C323.05 130 323.83 129.74 324.22 129.22C324.74 128.70 325.13 128.05 325.13 127.27C325 116.48 325 75.53 325 42.90C325 19.24 305.76 0 281.97 0L254.28 0C230.62 0 211.38 19.24 211.38 42.90C211.25 75.53 211.25 116.48 211.25 127.27C211.25 128.05 211.51 128.70 212.03 129.22C212.55 129.74 213.20 130 213.98 130L236.47 130C236.73 130 236.99 129.87 237.25 129.61C237.38 129.48 237.51 129.22 237.51 128.96ZM297.83 80.86L237.51 80.86L237.51 39.39C237.51 34.97 239.20 30.68 242.32 27.56C245.44 24.44 249.60 22.75 254.02 22.75L281.06 22.75C290.16 22.75 297.57 30.16 297.70 39.26ZM440.30 64.35C443.68 59.15 468.90 19.24 477.87 4.94C478.52 4.03 478.52 2.73 478.00 1.69C477.35 0.65 476.31 0 475.14 0L451.48 0C451.09 0 450.70 0.13 450.57 0.52C447.84 4.68 430.03 32.89 425.74 39.65C425.48 39.91 425.22 40.17 424.83 40.17C424.44 40.17 424.05 39.91 423.92 39.65C419.63 32.89 401.69 4.68 399.09 0.52C398.83 0.13 398.57 0 398.18 0L374.39 0C373.22 0 372.18 0.65 371.66 1.69C371.01 2.73 371.01 4.03 371.66 4.94C380.63 19.24 405.98 59.15 409.23 64.35C409.49 64.74 409.49 65.13 409.23 65.52C405.98 70.85 380.63 110.63 371.66 124.80C371.01 125.84 371.01 127.14 371.66 128.18C372.18 129.22 373.22 129.87 374.39 129.87L398.31 129.87C398.70 129.87 398.96 129.61 399.22 129.35C401.82 125.19 419.63 97.11 423.92 90.35C424.05 89.96 424.44 89.83 424.83 89.83C425.22 89.83 425.48 89.96 425.74 90.35C430.03 97.11 447.84 125.19 450.44 129.35C450.57 129.61 450.96 129.87 451.35 129.87L475.14 129.87C476.31 129.87 477.35 129.22 478.00 128.18C478.52 127.14 478.52 125.84 477.87 124.80C468.90 110.63 443.68 70.85 440.30 65.52C440.04 65.13 440.04 64.74 440.30 64.35Z"/>
</g>
</svg>